# xmcd CD database file
#
# Track frame offsets:
#	150
#	15737
#	28587
#	46978
#	59626
#	77476
#	95435
#	111001
#	121621
#	136671
#	155413
#	172733
#
# Disc length: 2517 seconds
#
# Revision: 0
# Processed by: cddbd v1.5.2PL0 Copyright (c) Steve Scherf et al.
# Submitted via: CDex 1.51
#
DISCID=8609d30c
DTITLE=Cray, Robert - Bad Influence
DYEAR=1900
DGENRE=Jazz
TTITLE0=Phone Booth
TTITLE1=Bad Influence
TTITLE2=The Grinder
TTITLE3=Got to make a Comeback
TTITLE4=So many Women
TTITLE5=Where do I go from here?
TTITLE6=Waiting for the tide to turn
TTITLE7=March on
TTITLE8=Don't touch me
TTITLE9=No big Deal
TTITLE10=Share what you have got
TTITLE11=I got loaded
EXTD=
EXTT0=
EXTT1=
EXTT2=
EXTT3=
EXTT4=
EXTT5=
EXTT6=
EXTT7=
EXTT8=
EXTT9=
EXTT10=
EXTT11=
PLAYORDER=
